<?xml version="1.0" encoding="utf-8" standalone="no"?>
<!DOCTYPE svg PUBLIC "-//W3C//DTD SVG 1.1//EN"
  "http://www.w3.org/Graphics/SVG/1.1/DTD/svg11.dtd">
<svg xmlns:xlink="http://www.w3.org/1999/xlink" width="228.96pt" height="228.96pt" viewBox="0 0 228.96 228.96" xmlns="http://www.w3.org/2000/svg" version="1.1">
 <metadata>
  <rdf:RDF xmlns:dc="http://purl.org/dc/elements/1.1/" xmlns:cc="http://creativecommons.org/ns#" xmlns:rdf="http://www.w3.org/1999/02/22-rdf-syntax-ns#">
   <cc:Work>
    <dc:type rdf:resource="http://purl.org/dc/dcmitype/StillImage"/>
    <dc:date>2026-07-05T18:30:07.653024</dc:date>
    <dc:format>image/svg+xml</dc:format>
    <dc:creator>
     <cc:Agent>
      <dc:title>Matplotlib v3.10.9, https://matplotlib.org/</dc:title>
     </cc:Agent>
    </dc:creator>
   </cc:Work>
  </rdf:RDF>
 </metadata>
 <defs>
  <style type="text/css">*{stroke-linejoin: round; stroke-linecap: butt}</style>
 </defs>
 <g id="figure_1">
  <g id="patch_1">
   <path d="M 0 228.96 
L 228.96 228.96 
L 228.96 0 
L 0 0 
L 0 228.96 
z
" style="fill: none; opacity: 0"/>
  </g>
  <g id="axes_1">
   <g id="patch_2">
    <path d="M 114.48 210.24 
C 139.875849 210.24 164.234968 200.150122 182.192545 182.192545 
C 200.150122 164.234968 210.24 139.875849 210.24 114.48 
C 210.24 89.084151 200.150122 64.725032 182.192545 46.767455 
C 164.234968 28.809878 139.875849 18.72 114.48 18.72 
C 89.084151 18.72 64.725032 28.809878 46.767455 46.767455 
C 28.809878 64.725032 18.72 89.084151 18.72 114.48 
C 18.72 139.875849 28.809878 164.234968 46.767455 182.192545 
C 64.725032 200.150122 89.084151 210.24 114.48 210.24 
z
" clip-path="url(#pe58dcfb1cd)" style="fill: #fde68a"/>
   </g>
   <g id="patch_3">
    <path d="M 114.48 209.272727 
C 139.619325 209.272727 163.732393 199.284768 181.50858 181.50858 
C 199.284768 163.732393 209.272727 139.619325 209.272727 114.48 
C 209.272727 89.340675 199.284768 65.227607 181.50858 47.45142 
C 163.732393 29.675232 139.619325 19.687273 114.48 19.687273 
C 89.340675 19.687273 65.227607 29.675232 47.45142 47.45142 
C 29.675232 65.227607 19.687273 89.340675 19.687273 114.48 
C 19.687273 139.619325 29.675232 163.732393 47.45142 181.50858 
C 65.227607 199.284768 89.340675 209.272727 114.48 209.272727 
z
" clip-path="url(#pe58dcfb1cd)" style="fill: #fde68a"/>
   </g>
   <g id="patch_4">
    <path d="M 114.48 208.305455 
C 139.362801 208.305455 163.229818 198.419413 180.824615 180.824615 
C 198.419413 163.229818 208.305455 139.362801 208.305455 114.48 
C 208.305455 89.597199 198.419413 65.730182 180.824615 48.135385 
C 163.229818 30.540587 139.362801 20.654545 114.48 20.654545 
C 89.597199 20.654545 65.730182 30.540587 48.135385 48.135385 
C 30.540587 65.730182 20.654545 89.597199 20.654545 114.48 
C 20.654545 139.362801 30.540587 163.229818 48.135385 180.824615 
C 65.730182 198.419413 89.597199 208.305455 114.48 208.305455 
z
" clip-path="url(#pe58dcfb1cd)" style="fill: #fde58a"/>
   </g>
   <g id="patch_5">
    <path d="M 114.48 207.338182 
C 139.106278 207.338182 162.727242 197.554058 180.14065 180.14065 
C 197.554058 162.727242 207.338182 139.106278 207.338182 114.48 
C 207.338182 89.853722 197.554058 66.232758 180.14065 48.81935 
C 162.727242 31.405942 139.106278 21.621818 114.48 21.621818 
C 89.853722 21.621818 66.232758 31.405942 48.81935 48.81935 
C 31.405942 66.232758 21.621818 89.853722 21.621818 114.48 
C 21.621818 139.106278 31.405942 162.727242 48.81935 180.14065 
C 66.232758 197.554058 89.853722 207.338182 114.48 207.338182 
z
" clip-path="url(#pe58dcfb1cd)" style="fill: #fde589"/>
   </g>
   <g id="patch_6">
    <path d="M 114.48 206.370909 
C 138.849754 206.370909 162.224667 196.688703 179.456685 179.456685 
C 196.688703 162.224667 206.370909 138.849754 206.370909 114.48 
C 206.370909 90.110246 196.688703 66.735333 179.456685 49.503315 
C 162.224667 32.271297 138.849754 22.589091 114.48 22.589091 
C 90.110246 22.589091 66.735333 32.271297 49.503315 49.503315 
C 32.271297 66.735333 22.589091 90.110246 22.589091 114.48 
C 22.589091 138.849754 32.271297 162.224667 49.503315 179.456685 
C 66.735333 196.688703 90.110246 206.370909 114.48 206.370909 
z
" clip-path="url(#pe58dcfb1cd)" style="fill: #fde489"/>
   </g>
   <g id="patch_7">
    <path d="M 114.48 205.403636 
C 138.59323 205.403636 161.722091 195.823348 178.77272 178.77272 
C 195.823348 161.722091 205.403636 138.59323 205.403636 114.48 
C 205.403636 90.36677 195.823348 67.237909 178.77272 50.18728 
C 161.722091 33.136652 138.59323 23.556364 114.48 23.556364 
C 90.36677 23.556364 67.237909 33.136652 50.18728 50.18728 
C 33.136652 67.237909 23.556364 90.36677 23.556364 114.48 
C 23.556364 138.59323 33.136652 161.722091 50.18728 178.77272 
C 67.237909 195.823348 90.36677 205.403636 114.48 205.403636 
z
" clip-path="url(#pe58dcfb1cd)" style="fill: #fde489"/>
   </g>
   <g id="patch_8">
    <path d="M 114.48 204.436364 
C 138.336707 204.436364 161.219516 194.957994 178.088755 178.088755 
C 194.957994 161.219516 204.436364 138.336707 204.436364 114.48 
C 204.436364 90.623293 194.957994 67.740484 178.088755 50.871245 
C 161.219516 34.002006 138.336707 24.523636 114.48 24.523636 
C 90.623293 24.523636 67.740484 34.002006 50.871245 50.871245 
C 34.002006 67.740484 24.523636 90.623293 24.523636 114.48 
C 24.523636 138.336707 34.002006 161.219516 50.871245 178.088755 
C 67.740484 194.957994 90.623293 204.436364 114.48 204.436364 
z
" clip-path="url(#pe58dcfb1cd)" style="fill: #fde389"/>
   </g>
   <g id="patch_9">
    <path d="M 114.48 203.469091 
C 138.080183 203.469091 160.71694 194.092639 177.40479 177.40479 
C 194.092639 160.71694 203.469091 138.080183 203.469091 114.48 
C 203.469091 90.879817 194.092639 68.24306 177.40479 51.55521 
C 160.71694 34.867361 138.080183 25.490909 114.48 25.490909 
C 90.879817 25.490909 68.24306 34.867361 51.55521 51.55521 
C 34.867361 68.24306 25.490909 90.879817 25.490909 114.48 
C 25.490909 138.080183 34.867361 160.71694 51.55521 177.40479 
C 68.24306 194.092639 90.879817 203.469091 114.48 203.469091 
z
" clip-path="url(#pe58dcfb1cd)" style="fill: #fde388"/>
   </g>
   <g id="patch_10">
    <path d="M 114.48 202.501818 
C 137.823659 202.501818 160.214365 193.227284 176.720825 176.720825 
C 193.227284 160.214365 202.501818 137.823659 202.501818 114.48 
C 202.501818 91.136341 193.227284 68.745635 176.720825 52.239175 
C 160.214365 35.732716 137.823659 26.458182 114.48 26.458182 
C 91.136341 26.458182 68.745635 35.732716 52.239175 52.239175 
C 35.732716 68.745635 26.458182 91.136341 26.458182 114.48 
C 26.458182 137.823659 35.732716 160.214365 52.239175 176.720825 
C 68.745635 193.227284 91.136341 202.501818 114.48 202.501818 
z
" clip-path="url(#pe58dcfb1cd)" style="fill: #fde388"/>
   </g>
   <g id="patch_11">
    <path d="M 114.48 201.534545 
C 137.567135 201.534545 159.711789 192.361929 176.036859 176.036859 
C 192.361929 159.711789 201.534545 137.567135 201.534545 114.48 
C 201.534545 91.392865 192.361929 69.248211 176.036859 52.923141 
C 159.711789 36.598071 137.567135 27.425455 114.48 27.425455 
C 91.392865 27.425455 69.248211 36.598071 52.923141 52.923141 
C 36.598071 69.248211 27.425455 91.392865 27.425455 114.48 
C 27.425455 137.567135 36.598071 159.711789 52.923141 176.036859 
C 69.248211 192.361929 91.392865 201.534545 114.48 201.534545 
z
" clip-path="url(#pe58dcfb1cd)" style="fill: #fde288"/>
   </g>
   <g id="patch_12">
    <path d="M 114.48 200.567273 
C 137.310612 200.567273 159.209214 191.496575 175.352894 175.352894 
C 191.496575 159.209214 200.567273 137.310612 200.567273 114.48 
C 200.567273 91.649388 191.496575 69.750786 175.352894 53.607106 
C 159.209214 37.463425 137.310612 28.392727 114.48 28.392727 
C 91.649388 28.392727 69.750786 37.463425 53.607106 53.607106 
C 37.463425 69.750786 28.392727 91.649388 28.392727 114.48 
C 28.392727 137.310612 37.463425 159.209214 53.607106 175.352894 
C 69.750786 191.496575 91.649388 200.567273 114.48 200.567273 
z
" clip-path="url(#pe58dcfb1cd)" style="fill: #fde288"/>
   </g>
   <g id="patch_13">
    <path d="M 114.48 199.6 
C 137.054088 199.6 158.706639 190.63122 174.668929 174.668929 
C 190.63122 158.706639 199.6 137.054088 199.6 114.48 
C 199.6 91.905912 190.63122 70.253361 174.668929 54.291071 
C 158.706639 38.32878 137.054088 29.36 114.48 29.36 
C 91.905912 29.36 70.253361 38.32878 54.291071 54.291071 
C 38.32878 70.253361 29.36 91.905912 29.36 114.48 
C 29.36 137.054088 38.32878 158.706639 54.291071 174.668929 
C 70.253361 190.63122 91.905912 199.6 114.48 199.6 
z
" clip-path="url(#pe58dcfb1cd)" style="fill: #fde188"/>
   </g>
   <g id="patch_14">
    <path d="M 114.48 198.632727 
C 136.797564 198.632727 158.204063 189.765865 173.984964 173.984964 
C 189.765865 158.204063 198.632727 136.797564 198.632727 114.48 
C 198.632727 92.162436 189.765865 70.755937 173.984964 54.975036 
C 158.204063 39.194135 136.797564 30.327273 114.48 30.327273 
C 92.162436 30.327273 70.755937 39.194135 54.975036 54.975036 
C 39.194135 70.755937 30.327273 92.162436 30.327273 114.48 
C 30.327273 136.797564 39.194135 158.204063 54.975036 173.984964 
C 70.755937 189.765865 92.162436 198.632727 114.48 198.632727 
z
" clip-path="url(#pe58dcfb1cd)" style="fill: #fde187"/>
   </g>
   <g id="patch_15">
    <path d="M 114.48 197.665455 
C 136.54104 197.665455 157.701488 188.90051 173.300999 173.300999 
C 188.90051 157.701488 197.665455 136.54104 197.665455 114.48 
C 197.665455 92.41896 188.90051 71.258512 173.300999 55.659001 
C 157.701488 40.05949 136.54104 31.294545 114.48 31.294545 
C 92.41896 31.294545 71.258512 40.05949 55.659001 55.659001 
C 40.05949 71.258512 31.294545 92.41896 31.294545 114.48 
C 31.294545 136.54104 40.05949 157.701488 55.659001 173.300999 
C 71.258512 188.90051 92.41896 197.665455 114.48 197.665455 
z
" clip-path="url(#pe58dcfb1cd)" style="fill: #fde087"/>
   </g>
   <g id="patch_16">
    <path d="M 114.48 196.698182 
C 136.284517 196.698182 157.198912 188.035156 172.617034 172.617034 
C 188.035156 157.198912 196.698182 136.284517 196.698182 114.48 
C 196.698182 92.675483 188.035156 71.761088 172.617034 56.342966 
C 157.198912 40.924844 136.284517 32.261818 114.48 32.261818 
C 92.675483 32.261818 71.761088 40.924844 56.342966 56.342966 
C 40.924844 71.761088 32.261818 92.675483 32.261818 114.48 
C 32.261818 136.284517 40.924844 157.198912 56.342966 172.617034 
C 71.761088 188.035156 92.675483 196.698182 114.48 196.698182 
z
" clip-path="url(#pe58dcfb1cd)" style="fill: #fde087"/>
   </g>
   <g id="patch_17">
    <path d="M 114.48 195.730909 
C 136.027993 195.730909 156.696337 187.169801 171.933069 171.933069 
C 187.169801 156.696337 195.730909 136.027993 195.730909 114.48 
C 195.730909 92.932007 187.169801 72.263663 171.933069 57.026931 
C 156.696337 41.790199 136.027993 33.229091 114.48 33.229091 
C 92.932007 33.229091 72.263663 41.790199 57.026931 57.026931 
C 41.790199 72.263663 33.229091 92.932007 33.229091 114.48 
C 33.229091 136.027993 41.790199 156.696337 57.026931 171.933069 
C 72.263663 187.169801 92.932007 195.730909 114.48 195.730909 
z
" clip-path="url(#pe58dcfb1cd)" style="fill: #fddf87"/>
   </g>
   <g id="patch_18">
    <path d="M 114.48 194.763636 
C 135.771469 194.763636 156.193761 186.304446 171.249104 171.249104 
C 186.304446 156.193761 194.763636 135.771469 194.763636 114.48 
C 194.763636 93.188531 186.304446 72.766239 171.249104 57.710896 
C 156.193761 42.655554 135.771469 34.196364 114.48 34.196364 
C 93.188531 34.196364 72.766239 42.655554 57.710896 57.710896 
C 42.655554 72.766239 34.196364 93.188531 34.196364 114.48 
C 34.196364 135.771469 42.655554 156.193761 57.710896 171.249104 
C 72.766239 186.304446 93.188531 194.763636 114.48 194.763636 
z
" clip-path="url(#pe58dcfb1cd)" style="fill: #fddf86"/>
   </g>
   <g id="patch_19">
    <path d="M 114.48 193.796364 
C 135.514946 193.796364 155.691186 185.439091 170.565139 170.565139 
C 185.439091 155.691186 193.796364 135.514946 193.796364 114.48 
C 193.796364 93.445054 185.439091 73.268814 170.565139 58.394861 
C 155.691186 43.520909 135.514946 35.163636 114.48 35.163636 
C 93.445054 35.163636 73.268814 43.520909 58.394861 58.394861 
C 43.520909 73.268814 35.163636 93.445054 35.163636 114.48 
C 35.163636 135.514946 43.520909 155.691186 58.394861 170.565139 
C 73.268814 185.439091 93.445054 193.796364 114.48 193.796364 
z
" clip-path="url(#pe58dcfb1cd)" style="fill: #fddf86"/>
   </g>
   <g id="patch_20">
    <path d="M 114.48 192.829091 
C 135.258422 192.829091 155.188611 184.573736 169.881173 169.881173 
C 184.573736 155.188611 192.829091 135.258422 192.829091 114.48 
C 192.829091 93.701578 184.573736 73.771389 169.881173 59.078827 
C 155.188611 44.386264 135.258422 36.130909 114.48 36.130909 
C 93.701578 36.130909 73.771389 44.386264 59.078827 59.078827 
C 44.386264 73.771389 36.130909 93.701578 36.130909 114.48 
C 36.130909 135.258422 44.386264 155.188611 59.078827 169.881173 
C 73.771389 184.573736 93.701578 192.829091 114.48 192.829091 
z
" clip-path="url(#pe58dcfb1cd)" style="fill: #fdde86"/>
   </g>
   <g id="patch_21">
    <path d="M 114.48 191.861818 
C 135.001898 191.861818 154.686035 183.708382 169.197208 169.197208 
C 183.708382 154.686035 191.861818 135.001898 191.861818 114.48 
C 191.861818 93.958102 183.708382 74.273965 169.197208 59.762792 
C 154.686035 45.251618 135.001898 37.098182 114.48 37.098182 
C 93.958102 37.098182 74.273965 45.251618 59.762792 59.762792 
C 45.251618 74.273965 37.098182 93.958102 37.098182 114.48 
C 37.098182 135.001898 45.251618 154.686035 59.762792 169.197208 
C 74.273965 183.708382 93.958102 191.861818 114.48 191.861818 
z
" clip-path="url(#pe58dcfb1cd)" style="fill: #fdde86"/>
   </g>
   <g id="patch_22">
    <path d="M 114.48 190.894545 
C 134.745374 190.894545 154.18346 182.843027 168.513243 168.513243 
C 182.843027 154.18346 190.894545 134.745374 190.894545 114.48 
C 190.894545 94.214626 182.843027 74.77654 168.513243 60.446757 
C 154.18346 46.116973 134.745374 38.065455 114.48 38.065455 
C 94.214626 38.065455 74.77654 46.116973 60.446757 60.446757 
C 46.116973 74.77654 38.065455 94.214626 38.065455 114.48 
C 38.065455 134.745374 46.116973 154.18346 60.446757 168.513243 
C 74.77654 182.843027 94.214626 190.894545 114.48 190.894545 
z
" clip-path="url(#pe58dcfb1cd)" style="fill: #fddd86"/>
   </g>
   <g id="patch_23">
    <path d="M 114.48 189.927273 
C 134.488851 189.927273 153.680884 181.977672 167.829278 167.829278 
C 181.977672 153.680884 189.927273 134.488851 189.927273 114.48 
C 189.927273 94.471149 181.977672 75.279116 167.829278 61.130722 
C 153.680884 46.982328 134.488851 39.032727 114.48 39.032727 
C 94.471149 39.032727 75.279116 46.982328 61.130722 61.130722 
C 46.982328 75.279116 39.032727 94.471149 39.032727 114.48 
C 39.032727 134.488851 46.982328 153.680884 61.130722 167.829278 
C 75.279116 181.977672 94.471149 189.927273 114.48 189.927273 
z
" clip-path="url(#pe58dcfb1cd)" style="fill: #fddd85"/>
   </g>
   <g id="patch_24">
    <path d="M 114.48 188.96 
C 134.232327 188.96 153.178309 181.112317 167.145313 167.145313 
C 181.112317 153.178309 188.96 134.232327 188.96 114.48 
C 188.96 94.727673 181.112317 75.781691 167.145313 61.814687 
C 153.178309 47.847683 134.232327 40 114.48 40 
C 94.727673 40 75.781691 47.847683 61.814687 61.814687 
C 47.847683 75.781691 40 94.727673 40 114.48 
C 40 134.232327 47.847683 153.178309 61.814687 167.145313 
C 75.781691 181.112317 94.727673 188.96 114.48 188.96 
z
" clip-path="url(#pe58dcfb1cd)" style="fill: #fddc85"/>
   </g>
   <g id="patch_25">
    <path d="M 114.48 187.992727 
C 133.975803 187.992727 152.675733 180.246963 166.461348 166.461348 
C 180.246963 152.675733 187.992727 133.975803 187.992727 114.48 
C 187.992727 94.984197 180.246963 76.284267 166.461348 62.498652 
C 152.675733 48.713037 133.975803 40.967273 114.48 40.967273 
C 94.984197 40.967273 76.284267 48.713037 62.498652 62.498652 
C 48.713037 76.284267 40.967273 94.984197 40.967273 114.48 
C 40.967273 133.975803 48.713037 152.675733 62.498652 166.461348 
C 76.284267 180.246963 94.984197 187.992727 114.48 187.992727 
z
" clip-path="url(#pe58dcfb1cd)" style="fill: #fddc85"/>
   </g>
   <g id="patch_26">
    <path d="M 114.48 187.025455 
C 133.719279 187.025455 152.173158 179.381608 165.777383 165.777383 
C 179.381608 152.173158 187.025455 133.719279 187.025455 114.48 
C 187.025455 95.240721 179.381608 76.786842 165.777383 63.182617 
C 152.173158 49.578392 133.719279 41.934545 114.48 41.934545 
C 95.240721 41.934545 76.786842 49.578392 63.182617 63.182617 
C 49.578392 76.786842 41.934545 95.240721 41.934545 114.48 
C 41.934545 133.719279 49.578392 152.173158 63.182617 165.777383 
C 76.786842 179.381608 95.240721 187.025455 114.48 187.025455 
z
" clip-path="url(#pe58dcfb1cd)" style="fill: #fddb85"/>
   </g>
   <g id="patch_27">
    <path d="M 114.48 186.058182 
C 133.462756 186.058182 151.670582 178.516253 165.093418 165.093418 
C 178.516253 151.670582 186.058182 133.462756 186.058182 114.48 
C 186.058182 95.497244 178.516253 77.289418 165.093418 63.866582 
C 151.670582 50.443747 133.462756 42.901818 114.48 42.901818 
C 95.497244 42.901818 77.289418 50.443747 63.866582 63.866582 
C 50.443747 77.289418 42.901818 95.497244 42.901818 114.48 
C 42.901818 133.462756 50.443747 151.670582 63.866582 165.093418 
C 77.289418 178.516253 95.497244 186.058182 114.48 186.058182 
z
" clip-path="url(#pe58dcfb1cd)" style="fill: #fddb84"/>
   </g>
   <g id="patch_28">
    <path d="M 114.48 185.090909 
C 133.206232 185.090909 151.168007 177.650898 164.409453 164.409453 
C 177.650898 151.168007 185.090909 133.206232 185.090909 114.48 
C 185.090909 95.753768 177.650898 77.791993 164.409453 64.550547 
C 151.168007 51.309102 133.206232 43.869091 114.48 43.869091 
C 95.753768 43.869091 77.791993 51.309102 64.550547 64.550547 
C 51.309102 77.791993 43.869091 95.753768 43.869091 114.48 
C 43.869091 133.206232 51.309102 151.168007 64.550547 164.409453 
C 77.791993 177.650898 95.753768 185.090909 114.48 185.090909 
z
" clip-path="url(#pe58dcfb1cd)" style="fill: #fdda84"/>
   </g>
   <g id="patch_29">
    <path d="M 114.48 184.123636 
C 132.949708 184.123636 150.665432 176.785543 163.725488 163.725488 
C 176.785543 150.665432 184.123636 132.949708 184.123636 114.48 
C 184.123636 96.010292 176.785543 78.294568 163.725488 65.234512 
C 150.665432 52.174457 132.949708 44.836364 114.48 44.836364 
C 96.010292 44.836364 78.294568 52.174457 65.234512 65.234512 
C 52.174457 78.294568 44.836364 96.010292 44.836364 114.48 
C 44.836364 132.949708 52.174457 150.665432 65.234512 163.725488 
C 78.294568 176.785543 96.010292 184.123636 114.48 184.123636 
z
" clip-path="url(#pe58dcfb1cd)" style="fill: #fdda84"/>
   </g>
   <g id="patch_30">
    <path d="M 114.48 183.156364 
C 132.693185 183.156364 150.162856 175.920189 163.041522 163.041522 
C 175.920189 150.162856 183.156364 132.693185 183.156364 114.48 
C 183.156364 96.266815 175.920189 78.797144 163.041522 65.918478 
C 150.162856 53.039811 132.693185 45.803636 114.48 45.803636 
C 96.266815 45.803636 78.797144 53.039811 65.918478 65.918478 
C 53.039811 78.797144 45.803636 96.266815 45.803636 114.48 
C 45.803636 132.693185 53.039811 150.162856 65.918478 163.041522 
C 78.797144 175.920189 96.266815 183.156364 114.48 183.156364 
z
" clip-path="url(#pe58dcfb1cd)" style="fill: #fdda84"/>
   </g>
   <g id="patch_31">
    <path d="M 114.48 182.189091 
C 132.436661 182.189091 149.660281 175.054834 162.357557 162.357557 
C 175.054834 149.660281 182.189091 132.436661 182.189091 114.48 
C 182.189091 96.523339 175.054834 79.299719 162.357557 66.602443 
C 149.660281 53.905166 132.436661 46.770909 114.48 46.770909 
C 96.523339 46.770909 79.299719 53.905166 66.602443 66.602443 
C 53.905166 79.299719 46.770909 96.523339 46.770909 114.48 
C 46.770909 132.436661 53.905166 149.660281 66.602443 162.357557 
C 79.299719 175.054834 96.523339 182.189091 114.48 182.189091 
z
" clip-path="url(#pe58dcfb1cd)" style="fill: #fdd984"/>
   </g>
   <g id="patch_32">
    <path d="M 114.48 181.221818 
C 132.180137 181.221818 149.157705 174.189479 161.673592 161.673592 
C 174.189479 149.157705 181.221818 132.180137 181.221818 114.48 
C 181.221818 96.779863 174.189479 79.802295 161.673592 67.286408 
C 149.157705 54.770521 132.180137 47.738182 114.48 47.738182 
C 96.779863 47.738182 79.802295 54.770521 67.286408 67.286408 
C 54.770521 79.802295 47.738182 96.779863 47.738182 114.48 
C 47.738182 132.180137 54.770521 149.157705 67.286408 161.673592 
C 79.802295 174.189479 96.779863 181.221818 114.48 181.221818 
z
" clip-path="url(#pe58dcfb1cd)" style="fill: #fdd983"/>
   </g>
   <g id="patch_33">
    <path d="M 114.48 180.254545 
C 131.923613 180.254545 148.65513 173.324124 160.989627 160.989627 
C 173.324124 148.65513 180.254545 131.923613 180.254545 114.48 
C 180.254545 97.036387 173.324124 80.30487 160.989627 67.970373 
C 148.65513 55.635876 131.923613 48.705455 114.48 48.705455 
C 97.036387 48.705455 80.30487 55.635876 67.970373 67.970373 
C 55.635876 80.30487 48.705455 97.036387 48.705455 114.48 
C 48.705455 131.923613 55.635876 148.65513 67.970373 160.989627 
C 80.30487 173.324124 97.036387 180.254545 114.48 180.254545 
z
" clip-path="url(#pe58dcfb1cd)" style="fill: #fdd883"/>
   </g>
   <g id="patch_34">
    <path d="M 114.48 179.287273 
C 131.66709 179.287273 148.152554 172.45877 160.305662 160.305662 
C 172.45877 148.152554 179.287273 131.66709 179.287273 114.48 
C 179.287273 97.29291 172.45877 80.807446 160.305662 68.654338 
C 148.152554 56.50123 131.66709 49.672727 114.48 49.672727 
C 97.29291 49.672727 80.807446 56.50123 68.654338 68.654338 
C 56.50123 80.807446 49.672727 97.29291 49.672727 114.48 
C 49.672727 131.66709 56.50123 148.152554 68.654338 160.305662 
C 80.807446 172.45877 97.29291 179.287273 114.48 179.287273 
z
" clip-path="url(#pe58dcfb1cd)" style="fill: #fdd883"/>
   </g>
   <g id="patch_35">
    <path d="M 114.48 178.32 
C 131.410566 178.32 147.649979 171.593415 159.621697 159.621697 
C 171.593415 147.649979 178.32 131.410566 178.32 114.48 
C 178.32 97.549434 171.593415 81.310021 159.621697 69.338303 
C 147.649979 57.366585 131.410566 50.64 114.48 50.64 
C 97.549434 50.64 81.310021 57.366585 69.338303 69.338303 
C 57.366585 81.310021 50.64 97.549434 50.64 114.48 
C 50.64 131.410566 57.366585 147.649979 69.338303 159.621697 
C 81.310021 171.593415 97.549434 178.32 114.48 178.32 
z
" clip-path="url(#pe58dcfb1cd)" style="fill: #fdd783"/>
   </g>
   <g id="patch_36">
    <path d="M 114.48 177.352727 
C 131.154042 177.352727 147.147404 170.72806 158.937732 158.937732 
C 170.72806 147.147404 177.352727 131.154042 177.352727 114.48 
C 177.352727 97.805958 170.72806 81.812596 158.937732 70.022268 
C 147.147404 58.23194 131.154042 51.607273 114.48 51.607273 
C 97.805958 51.607273 81.812596 58.23194 70.022268 70.022268 
C 58.23194 81.812596 51.607273 97.805958 51.607273 114.48 
C 51.607273 131.154042 58.23194 147.147404 70.022268 158.937732 
C 81.812596 170.72806 97.805958 177.352727 114.48 177.352727 
z
" clip-path="url(#pe58dcfb1cd)" style="fill: #fdd782"/>
   </g>
   <g id="patch_37">
    <path d="M 114.48 176.385455 
C 130.897518 176.385455 146.644828 169.862705 158.253767 158.253767 
C 169.862705 146.644828 176.385455 130.897518 176.385455 114.48 
C 176.385455 98.062482 169.862705 82.315172 158.253767 70.706233 
C 146.644828 59.097295 130.897518 52.574545 114.48 52.574545 
C 98.062482 52.574545 82.315172 59.097295 70.706233 70.706233 
C 59.097295 82.315172 52.574545 98.062482 52.574545 114.48 
C 52.574545 130.897518 59.097295 146.644828 70.706233 158.253767 
C 82.315172 169.862705 98.062482 176.385455 114.48 176.385455 
z
" clip-path="url(#pe58dcfb1cd)" style="fill: #fdd682"/>
   </g>
   <g id="patch_38">
    <path d="M 114.48 175.418182 
C 130.640995 175.418182 146.142253 168.997351 157.569802 157.569802 
C 168.997351 146.142253 175.418182 130.640995 175.418182 114.48 
C 175.418182 98.319005 168.997351 82.817747 157.569802 71.390198 
C 146.142253 59.962649 130.640995 53.541818 114.48 53.541818 
C 98.319005 53.541818 82.817747 59.962649 71.390198 71.390198 
C 59.962649 82.817747 53.541818 98.319005 53.541818 114.48 
C 53.541818 130.640995 59.962649 146.142253 71.390198 157.569802 
C 82.817747 168.997351 98.319005 175.418182 114.48 175.418182 
z
" clip-path="url(#pe58dcfb1cd)" style="fill: #fdd682"/>
   </g>
   <g id="patch_39">
    <path d="M 114.48 174.450909 
C 130.384471 174.450909 145.639677 168.131996 156.885836 156.885836 
C 168.131996 145.639677 174.450909 130.384471 174.450909 114.48 
C 174.450909 98.575529 168.131996 83.320323 156.885836 72.074164 
C 145.639677 60.828004 130.384471 54.509091 114.48 54.509091 
C 98.575529 54.509091 83.320323 60.828004 72.074164 72.074164 
C 60.828004 83.320323 54.509091 98.575529 54.509091 114.48 
C 54.509091 130.384471 60.828004 145.639677 72.074164 156.885836 
C 83.320323 168.131996 98.575529 174.450909 114.48 174.450909 
z
" clip-path="url(#pe58dcfb1cd)" style="fill: #fdd682"/>
   </g>
   <g id="patch_40">
    <path d="M 114.48 173.483636 
C 130.127947 173.483636 145.137102 167.266641 156.201871 156.201871 
C 167.266641 145.137102 173.483636 130.127947 173.483636 114.48 
C 173.483636 98.832053 167.266641 83.822898 156.201871 72.758129 
C 145.137102 61.693359 130.127947 55.476364 114.48 55.476364 
C 98.832053 55.476364 83.822898 61.693359 72.758129 72.758129 
C 61.693359 83.822898 55.476364 98.832053 55.476364 114.48 
C 55.476364 130.127947 61.693359 145.137102 72.758129 156.201871 
C 83.822898 167.266641 98.832053 173.483636 114.48 173.483636 
z
" clip-path="url(#pe58dcfb1cd)" style="fill: #fdd582"/>
   </g>
   <g id="patch_41">
    <path d="M 114.48 172.516364 
C 129.871424 172.516364 144.634526 166.401286 155.517906 155.517906 
C 166.401286 144.634526 172.516364 129.871424 172.516364 114.48 
C 172.516364 99.088576 166.401286 84.325474 155.517906 73.442094 
C 144.634526 62.558714 129.871424 56.443636 114.48 56.443636 
C 99.088576 56.443636 84.325474 62.558714 73.442094 73.442094 
C 62.558714 84.325474 56.443636 99.088576 56.443636 114.48 
C 56.443636 129.871424 62.558714 144.634526 73.442094 155.517906 
C 84.325474 166.401286 99.088576 172.516364 114.48 172.516364 
z
" clip-path="url(#pe58dcfb1cd)" style="fill: #fdd581"/>
   </g>
   <g id="patch_42">
    <path d="M 114.48 171.549091 
C 129.6149 171.549091 144.131951 165.535931 154.833941 154.833941 
C 165.535931 144.131951 171.549091 129.6149 171.549091 114.48 
C 171.549091 99.3451 165.535931 84.828049 154.833941 74.126059 
C 144.131951 63.424069 129.6149 57.410909 114.48 57.410909 
C 99.3451 57.410909 84.828049 63.424069 74.126059 74.126059 
C 63.424069 84.828049 57.410909 99.3451 57.410909 114.48 
C 57.410909 129.6149 63.424069 144.131951 74.126059 154.833941 
C 84.828049 165.535931 99.3451 171.549091 114.48 171.549091 
z
" clip-path="url(#pe58dcfb1cd)" style="fill: #fdd481"/>
   </g>
   <g id="patch_43">
    <path d="M 114.48 170.581818 
C 129.358376 170.581818 143.629375 164.670577 154.149976 154.149976 
C 164.670577 143.629375 170.581818 129.358376 170.581818 114.48 
C 170.581818 99.601624 164.670577 85.330625 154.149976 74.810024 
C 143.629375 64.289423 129.358376 58.378182 114.48 58.378182 
C 99.601624 58.378182 85.330625 64.289423 74.810024 74.810024 
C 64.289423 85.330625 58.378182 99.601624 58.378182 114.48 
C 58.378182 129.358376 64.289423 143.629375 74.810024 154.149976 
C 85.330625 164.670577 99.601624 170.581818 114.48 170.581818 
z
" clip-path="url(#pe58dcfb1cd)" style="fill: #fdd481"/>
   </g>
   <g id="patch_44">
    <path d="M 114.48 169.614545 
C 129.101852 169.614545 143.1268 163.805222 153.466011 153.466011 
C 163.805222 143.1268 169.614545 129.101852 169.614545 114.48 
C 169.614545 99.858148 163.805222 85.8332 153.466011 75.493989 
C 143.1268 65.154778 129.101852 59.345455 114.48 59.345455 
C 99.858148 59.345455 85.8332 65.154778 75.493989 75.493989 
C 65.154778 85.8332 59.345455 99.858148 59.345455 114.48 
C 59.345455 129.101852 65.154778 143.1268 75.493989 153.466011 
C 85.8332 163.805222 99.858148 169.614545 114.48 169.614545 
z
" clip-path="url(#pe58dcfb1cd)" style="fill: #fdd381"/>
   </g>
   <g id="patch_45">
    <path d="M 114.48 168.647273 
C 128.845329 168.647273 142.624225 162.939867 152.782046 152.782046 
C 162.939867 142.624225 168.647273 128.845329 168.647273 114.48 
C 168.647273 100.114671 162.939867 86.335775 152.782046 76.177954 
C 142.624225 66.020133 128.845329 60.312727 114.48 60.312727 
C 100.114671 60.312727 86.335775 66.020133 76.177954 76.177954 
C 66.020133 86.335775 60.312727 100.114671 60.312727 114.48 
C 60.312727 128.845329 66.020133 142.624225 76.177954 152.782046 
C 86.335775 162.939867 100.114671 168.647273 114.48 168.647273 
z
" clip-path="url(#pe58dcfb1cd)" style="fill: #fdd380"/>
   </g>
   <g id="patch_46">
    <path d="M 114.48 167.68 
C 128.588805 167.68 142.121649 162.074512 152.098081 152.098081 
C 162.074512 142.121649 167.68 128.588805 167.68 114.48 
C 167.68 100.371195 162.074512 86.838351 152.098081 76.861919 
C 142.121649 66.885488 128.588805 61.28 114.48 61.28 
C 100.371195 61.28 86.838351 66.885488 76.861919 76.861919 
C 66.885488 86.838351 61.28 100.371195 61.28 114.48 
C 61.28 128.588805 66.885488 142.121649 76.861919 152.098081 
C 86.838351 162.074512 100.371195 167.68 114.48 167.68 
z
" clip-path="url(#pe58dcfb1cd)" style="fill: #fdd380"/>
   </g>
   <g id="patch_47">
    <path d="M 114.48 166.712727 
C 128.332281 166.712727 141.619074 161.209158 151.414116 151.414116 
C 161.209158 141.619074 166.712727 128.332281 166.712727 114.48 
C 166.712727 100.627719 161.209158 87.340926 151.414116 77.545884 
C 141.619074 67.750842 128.332281 62.247273 114.48 62.247273 
C 100.627719 62.247273 87.340926 67.750842 77.545884 77.545884 
C 67.750842 87.340926 62.247273 100.627719 62.247273 114.48 
C 62.247273 128.332281 67.750842 141.619074 77.545884 151.414116 
C 87.340926 161.209158 100.627719 166.712727 114.48 166.712727 
z
" clip-path="url(#pe58dcfb1cd)" style="fill: #fdd280"/>
   </g>
   <g id="patch_48">
    <path d="M 114.48 165.745455 
C 128.075757 165.745455 141.116498 160.343803 150.730151 150.730151 
C 160.343803 141.116498 165.745455 128.075757 165.745455 114.48 
C 165.745455 100.884243 160.343803 87.843502 150.730151 78.229849 
C 141.116498 68.616197 128.075757 63.214545 114.48 63.214545 
C 100.884243 63.214545 87.843502 68.616197 78.229849 78.229849 
C 68.616197 87.843502 63.214545 100.884243 63.214545 114.48 
C 63.214545 128.075757 68.616197 141.116498 78.229849 150.730151 
C 87.843502 160.343803 100.884243 165.745455 114.48 165.745455 
z
" clip-path="url(#pe58dcfb1cd)" style="fill: #fdd280"/>
   </g>
   <g id="patch_49">
    <path d="M 114.48 164.778182 
C 127.819234 164.778182 140.613923 159.478448 150.046185 150.046185 
C 159.478448 140.613923 164.778182 127.819234 164.778182 114.48 
C 164.778182 101.140766 159.478448 88.346077 150.046185 78.913815 
C 140.613923 69.481552 127.819234 64.181818 114.48 64.181818 
C 101.140766 64.181818 88.346077 69.481552 78.913815 78.913815 
C 69.481552 88.346077 64.181818 101.140766 64.181818 114.48 
C 64.181818 127.819234 69.481552 140.613923 78.913815 150.046185 
C 88.346077 159.478448 101.140766 164.778182 114.48 164.778182 
z
" clip-path="url(#pe58dcfb1cd)" style="fill: #fdd180"/>
   </g>
   <g id="patch_50">
    <path d="M 114.48 163.810909 
C 127.56271 163.810909 140.111347 158.613093 149.36222 149.36222 
C 158.613093 140.111347 163.810909 127.56271 163.810909 114.48 
C 163.810909 101.39729 158.613093 88.848653 149.36222 79.59778 
C 140.111347 70.346907 127.56271 65.149091 114.48 65.149091 
C 101.39729 65.149091 88.848653 70.346907 79.59778 79.59778 
C 70.346907 88.848653 65.149091 101.39729 65.149091 114.48 
C 65.149091 127.56271 70.346907 140.111347 79.59778 149.36222 
C 88.848653 158.613093 101.39729 163.810909 114.48 163.810909 
z
" clip-path="url(#pe58dcfb1cd)" style="fill: #fdd17f"/>
   </g>
   <g id="patch_51">
    <path d="M 114.48 162.843636 
C 127.306186 162.843636 139.608772 157.747739 148.678255 148.678255 
C 157.747739 139.608772 162.843636 127.306186 162.843636 114.48 
C 162.843636 101.653814 157.747739 89.351228 148.678255 80.281745 
C 139.608772 71.212261 127.306186 66.116364 114.48 66.116364 
C 101.653814 66.116364 89.351228 71.212261 80.281745 80.281745 
C 71.212261 89.351228 66.116364 101.653814 66.116364 114.48 
C 66.116364 127.306186 71.212261 139.608772 80.281745 148.678255 
C 89.351228 157.747739 101.653814 162.843636 114.48 162.843636 
z
" clip-path="url(#pe58dcfb1cd)" style="fill: #fdd07f"/>
   </g>
   <g id="patch_52">
    <path d="M 114.48 161.876364 
C 127.049663 161.876364 139.106196 156.882384 147.99429 147.99429 
C 156.882384 139.106196 161.876364 127.049663 161.876364 114.48 
C 161.876364 101.910337 156.882384 89.853804 147.99429 80.96571 
C 139.106196 72.077616 127.049663 67.083636 114.48 67.083636 
C 101.910337 67.083636 89.853804 72.077616 80.96571 80.96571 
C 72.077616 89.853804 67.083636 101.910337 67.083636 114.48 
C 67.083636 127.049663 72.077616 139.106196 80.96571 147.99429 
C 89.853804 156.882384 101.910337 161.876364 114.48 161.876364 
z
" clip-path="url(#pe58dcfb1cd)" style="fill: #fdd07f"/>
   </g>
   <g id="patch_53">
    <path d="M 114.48 160.909091 
C 126.793139 160.909091 138.603621 156.017029 147.310325 147.310325 
C 156.017029 138.603621 160.909091 126.793139 160.909091 114.48 
C 160.909091 102.166861 156.017029 90.356379 147.310325 81.649675 
C 138.603621 72.942971 126.793139 68.050909 114.48 68.050909 
C 102.166861 68.050909 90.356379 72.942971 81.649675 81.649675 
C 72.942971 90.356379 68.050909 102.166861 68.050909 114.48 
C 68.050909 126.793139 72.942971 138.603621 81.649675 147.310325 
C 90.356379 156.017029 102.166861 160.909091 114.48 160.909091 
z
" clip-path="url(#pe58dcfb1cd)" style="fill: #fdcf7f"/>
   </g>
   <g id="patch_54">
    <path d="M 114.48 159.941818 
C 126.536615 159.941818 138.101046 155.151674 146.62636 146.62636 
C 155.151674 138.101046 159.941818 126.536615 159.941818 114.48 
C 159.941818 102.423385 155.151674 90.858954 146.62636 82.33364 
C 138.101046 73.808326 126.536615 69.018182 114.48 69.018182 
C 102.423385 69.018182 90.858954 73.808326 82.33364 82.33364 
C 73.808326 90.858954 69.018182 102.423385 69.018182 114.48 
C 69.018182 126.536615 73.808326 138.101046 82.33364 146.62636 
C 90.858954 155.151674 102.423385 159.941818 114.48 159.941818 
z
" clip-path="url(#pe58dcfb1cd)" style="fill: #fdcf7e"/>
   </g>
   <g id="patch_55">
    <path d="M 114.48 158.974545 
C 126.280091 158.974545 137.59847 154.286319 145.942395 145.942395 
C 154.286319 137.59847 158.974545 126.280091 158.974545 114.48 
C 158.974545 102.679909 154.286319 91.36153 145.942395 83.017605 
C 137.59847 74.673681 126.280091 69.985455 114.48 69.985455 
C 102.679909 69.985455 91.36153 74.673681 83.017605 83.017605 
C 74.673681 91.36153 69.985455 102.679909 69.985455 114.48 
C 69.985455 126.280091 74.673681 137.59847 83.017605 145.942395 
C 91.36153 154.286319 102.679909 158.974545 114.48 158.974545 
z
" clip-path="url(#pe58dcfb1cd)" style="fill: #fdce7e"/>
   </g>
   <g id="patch_56">
    <path d="M 114.48 158.007273 
C 126.023568 158.007273 137.095895 153.420965 145.25843 145.25843 
C 153.420965 137.095895 158.007273 126.023568 158.007273 114.48 
C 158.007273 102.936432 153.420965 91.864105 145.25843 83.70157 
C 137.095895 75.539035 126.023568 70.952727 114.48 70.952727 
C 102.936432 70.952727 91.864105 75.539035 83.70157 83.70157 
C 75.539035 91.864105 70.952727 102.936432 70.952727 114.48 
C 70.952727 126.023568 75.539035 137.095895 83.70157 145.25843 
C 91.864105 153.420965 102.936432 158.007273 114.48 158.007273 
z
" clip-path="url(#pe58dcfb1cd)" style="fill: #fdce7e"/>
   </g>
   <g id="patch_57">
    <path d="M 114.48 157.04 
C 125.767044 157.04 136.593319 152.55561 144.574465 144.574465 
C 152.55561 136.593319 157.04 125.767044 157.04 114.48 
C 157.04 103.192956 152.55561 92.366681 144.574465 84.385535 
C 136.593319 76.40439 125.767044 71.92 114.48 71.92 
C 103.192956 71.92 92.366681 76.40439 84.385535 84.385535 
C 76.40439 92.366681 71.92 103.192956 71.92 114.48 
C 71.92 125.767044 76.40439 136.593319 84.385535 144.574465 
C 92.366681 152.55561 103.192956 157.04 114.48 157.04 
z
" clip-path="url(#pe58dcfb1cd)" style="fill: #fdcd7e"/>
   </g>
   <g id="patch_58">
    <path d="M 114.48 156.072727 
C 125.51052 156.072727 136.090744 151.690255 143.8905 143.8905 
C 151.690255 136.090744 156.072727 125.51052 156.072727 114.48 
C 156.072727 103.44948 151.690255 92.869256 143.8905 85.0695 
C 136.090744 77.269745 125.51052 72.887273 114.48 72.887273 
C 103.44948 72.887273 92.869256 77.269745 85.0695 85.0695 
C 77.269745 92.869256 72.887273 103.44948 72.887273 114.48 
C 72.887273 125.51052 77.269745 136.090744 85.0695 143.8905 
C 92.869256 151.690255 103.44948 156.072727 114.48 156.072727 
z
" clip-path="url(#pe58dcfb1cd)" style="fill: #fdcd7e"/>
   </g>
   <g id="patch_59">
    <path d="M 114.48 155.105455 
C 125.253996 155.105455 135.588168 150.8249 143.206534 143.206534 
C 150.8249 135.588168 155.105455 125.253996 155.105455 114.48 
C 155.105455 103.706004 150.8249 93.371832 143.206534 85.753466 
C 135.588168 78.1351 125.253996 73.854545 114.48 73.854545 
C 103.706004 73.854545 93.371832 78.1351 85.753466 85.753466 
C 78.1351 93.371832 73.854545 103.706004 73.854545 114.48 
C 73.854545 125.253996 78.1351 135.588168 85.753466 143.206534 
C 93.371832 150.8249 103.706004 155.105455 114.48 155.105455 
z
" clip-path="url(#pe58dcfb1cd)" style="fill: #fdcd7d"/>
   </g>
   <g id="patch_60">
    <path d="M 114.48 154.138182 
C 124.997473 154.138182 135.085593 149.959546 142.522569 142.522569 
C 149.959546 135.085593 154.138182 124.997473 154.138182 114.48 
C 154.138182 103.962527 149.959546 93.874407 142.522569 86.437431 
C 135.085593 79.000454 124.997473 74.821818 114.48 74.821818 
C 103.962527 74.821818 93.874407 79.000454 86.437431 86.437431 
C 79.000454 93.874407 74.821818 103.962527 74.821818 114.48 
C 74.821818 124.997473 79.000454 135.085593 86.437431 142.522569 
C 93.874407 149.959546 103.962527 154.138182 114.48 154.138182 
z
" clip-path="url(#pe58dcfb1cd)" style="fill: #fdcc7d"/>
   </g>
   <g id="patch_61">
    <path d="M 114.48 153.170909 
C 124.740949 153.170909 134.583018 149.094191 141.838604 141.838604 
C 149.094191 134.583018 153.170909 124.740949 153.170909 114.48 
C 153.170909 104.219051 149.094191 94.376982 141.838604 87.121396 
C 134.583018 79.865809 124.740949 75.789091 114.48 75.789091 
C 104.219051 75.789091 94.376982 79.865809 87.121396 87.121396 
C 79.865809 94.376982 75.789091 104.219051 75.789091 114.48 
C 75.789091 124.740949 79.865809 134.583018 87.121396 141.838604 
C 94.376982 149.094191 104.219051 153.170909 114.48 153.170909 
z
" clip-path="url(#pe58dcfb1cd)" style="fill: #fdcc7d"/>
   </g>
   <g id="patch_62">
    <path d="M 114.48 152.203636 
C 124.484425 152.203636 134.080442 148.228836 141.154639 141.154639 
C 148.228836 134.080442 152.203636 124.484425 152.203636 114.48 
C 152.203636 104.475575 148.228836 94.879558 141.154639 87.805361 
C 134.080442 80.731164 124.484425 76.756364 114.48 76.756364 
C 104.475575 76.756364 94.879558 80.731164 87.805361 87.805361 
C 80.731164 94.879558 76.756364 104.475575 76.756364 114.48 
C 76.756364 124.484425 80.731164 134.080442 87.805361 141.154639 
C 94.879558 148.228836 104.475575 152.203636 114.48 152.203636 
z
" clip-path="url(#pe58dcfb1cd)" style="fill: #fdcb7d"/>
   </g>
   <g id="patch_63">
    <path d="M 114.48 151.236364 
C 124.227902 151.236364 133.577867 147.363481 140.470674 140.470674 
C 147.363481 133.577867 151.236364 124.227902 151.236364 114.48 
C 151.236364 104.732098 147.363481 95.382133 140.470674 88.489326 
C 133.577867 81.596519 124.227902 77.723636 114.48 77.723636 
C 104.732098 77.723636 95.382133 81.596519 88.489326 88.489326 
C 81.596519 95.382133 77.723636 104.732098 77.723636 114.48 
C 77.723636 124.227902 81.596519 133.577867 88.489326 140.470674 
C 95.382133 147.363481 104.732098 151.236364 114.48 151.236364 
z
" clip-path="url(#pe58dcfb1cd)" style="fill: #fdcb7c"/>
   </g>
   <g id="patch_64">
    <path d="M 114.48 150.269091 
C 123.971378 150.269091 133.075291 146.498127 139.786709 139.786709 
C 146.498127 133.075291 150.269091 123.971378 150.269091 114.48 
C 150.269091 104.988622 146.498127 95.884709 139.786709 89.173291 
C 133.075291 82.461873 123.971378 78.690909 114.48 78.690909 
C 104.988622 78.690909 95.884709 82.461873 89.173291 89.173291 
C 82.461873 95.884709 78.690909 104.988622 78.690909 114.48 
C 78.690909 123.971378 82.461873 133.075291 89.173291 139.786709 
C 95.884709 146.498127 104.988622 150.269091 114.48 150.269091 
z
" clip-path="url(#pe58dcfb1cd)" style="fill: #fdca7c"/>
   </g>
   <g id="patch_65">
    <path d="M 114.48 149.301818 
C 123.714854 149.301818 132.572716 145.632772 139.102744 139.102744 
C 145.632772 132.572716 149.301818 123.714854 149.301818 114.48 
C 149.301818 105.245146 145.632772 96.387284 139.102744 89.857256 
C 132.572716 83.327228 123.714854 79.658182 114.48 79.658182 
C 105.245146 79.658182 96.387284 83.327228 89.857256 89.857256 
C 83.327228 96.387284 79.658182 105.245146 79.658182 114.48 
C 79.658182 123.714854 83.327228 132.572716 89.857256 139.102744 
C 96.387284 145.632772 105.245146 149.301818 114.48 149.301818 
z
" clip-path="url(#pe58dcfb1cd)" style="fill: #fdca7c"/>
   </g>
   <g id="patch_66">
    <path d="M 114.48 148.334545 
C 123.45833 148.334545 132.07014 144.767417 138.418779 138.418779 
C 144.767417 132.07014 148.334545 123.45833 148.334545 114.48 
C 148.334545 105.50167 144.767417 96.88986 138.418779 90.541221 
C 132.07014 84.192583 123.45833 80.625455 114.48 80.625455 
C 105.50167 80.625455 96.88986 84.192583 90.541221 90.541221 
C 84.192583 96.88986 80.625455 105.50167 80.625455 114.48 
C 80.625455 123.45833 84.192583 132.07014 90.541221 138.418779 
C 96.88986 144.767417 105.50167 148.334545 114.48 148.334545 
z
" clip-path="url(#pe58dcfb1cd)" style="fill: #fdca7c"/>
   </g>
   <g id="patch_67">
    <path d="M 114.48 147.367273 
C 123.201807 147.367273 131.567565 143.902062 137.734814 137.734814 
C 143.902062 131.567565 147.367273 123.201807 147.367273 114.48 
C 147.367273 105.758193 143.902062 97.392435 137.734814 91.225186 
C 131.567565 85.057938 123.201807 81.592727 114.48 81.592727 
C 105.758193 81.592727 97.392435 85.057938 91.225186 91.225186 
C 85.057938 97.392435 81.592727 105.758193 81.592727 114.48 
C 81.592727 123.201807 85.057938 131.567565 91.225186 137.734814 
C 97.392435 143.902062 105.758193 147.367273 114.48 147.367273 
z
" clip-path="url(#pe58dcfb1cd)" style="fill: #fdc97c"/>
   </g>
   <g id="patch_68">
    <path d="M 114.48 146.4 
C 122.945283 146.4 131.064989 143.036707 137.050848 137.050848 
C 143.036707 131.064989 146.4 122.945283 146.4 114.48 
C 146.4 106.014717 143.036707 97.895011 137.050848 91.909152 
C 131.064989 85.923293 122.945283 82.56 114.48 82.56 
C 106.014717 82.56 97.895011 85.923293 91.909152 91.909152 
C 85.923293 97.895011 82.56 106.014717 82.56 114.48 
C 82.56 122.945283 85.923293 131.064989 91.909152 137.050848 
C 97.895011 143.036707 106.014717 146.4 114.48 146.4 
z
" clip-path="url(#pe58dcfb1cd)" style="fill: #fdc97b"/>
   </g>
   <g id="patch_69">
    <path d="M 114.48 145.432727 
C 122.688759 145.432727 130.562414 142.171353 136.366883 136.366883 
C 142.171353 130.562414 145.432727 122.688759 145.432727 114.48 
C 145.432727 106.271241 142.171353 98.397586 136.366883 92.593117 
C 130.562414 86.788647 122.688759 83.527273 114.48 83.527273 
C 106.271241 83.527273 98.397586 86.788647 92.593117 92.593117 
C 86.788647 98.397586 83.527273 106.271241 83.527273 114.48 
C 83.527273 122.688759 86.788647 130.562414 92.593117 136.366883 
C 98.397586 142.171353 106.271241 145.432727 114.48 145.432727 
z
" clip-path="url(#pe58dcfb1cd)" style="fill: #fdc87b"/>
   </g>
   <g id="patch_70">
    <path d="M 114.48 144.465455 
C 122.432236 144.465455 130.059839 141.305998 135.682918 135.682918 
C 141.305998 130.059839 144.465455 122.432236 144.465455 114.48 
C 144.465455 106.527764 141.305998 98.900161 135.682918 93.277082 
C 130.059839 87.654002 122.432236 84.494545 114.48 84.494545 
C 106.527764 84.494545 98.900161 87.654002 93.277082 93.277082 
C 87.654002 98.900161 84.494545 106.527764 84.494545 114.48 
C 84.494545 122.432236 87.654002 130.059839 93.277082 135.682918 
C 98.900161 141.305998 106.527764 144.465455 114.48 144.465455 
z
" clip-path="url(#pe58dcfb1cd)" style="fill: #fdc87b"/>
   </g>
   <g id="patch_71">
    <path d="M 114.48 143.498182 
C 122.175712 143.498182 129.557263 140.440643 134.998953 134.998953 
C 140.440643 129.557263 143.498182 122.175712 143.498182 114.48 
C 143.498182 106.784288 140.440643 99.402737 134.998953 93.961047 
C 129.557263 88.519357 122.175712 85.461818 114.48 85.461818 
C 106.784288 85.461818 99.402737 88.519357 93.961047 93.961047 
C 88.519357 99.402737 85.461818 106.784288 85.461818 114.48 
C 85.461818 122.175712 88.519357 129.557263 93.961047 134.998953 
C 99.402737 140.440643 106.784288 143.498182 114.48 143.498182 
z
" clip-path="url(#pe58dcfb1cd)" style="fill: #fdc77b"/>
   </g>
   <g id="patch_72">
    <path d="M 114.48 142.530909 
C 121.919188 142.530909 129.054688 139.575288 134.314988 134.314988 
C 139.575288 129.054688 142.530909 121.919188 142.530909 114.48 
C 142.530909 107.040812 139.575288 99.905312 134.314988 94.645012 
C 129.054688 89.384712 121.919188 86.429091 114.48 86.429091 
C 107.040812 86.429091 99.905312 89.384712 94.645012 94.645012 
C 89.384712 99.905312 86.429091 107.040812 86.429091 114.48 
C 86.429091 121.919188 89.384712 129.054688 94.645012 134.314988 
C 99.905312 139.575288 107.040812 142.530909 114.48 142.530909 
z
" clip-path="url(#pe58dcfb1cd)" style="fill: #fdc77a"/>
   </g>
   <g id="patch_73">
    <path d="M 114.48 141.563636 
C 121.662664 141.563636 128.552112 138.709934 133.631023 133.631023 
C 138.709934 128.552112 141.563636 121.662664 141.563636 114.48 
C 141.563636 107.297336 138.709934 100.407888 133.631023 95.328977 
C 128.552112 90.250066 121.662664 87.396364 114.48 87.396364 
C 107.297336 87.396364 100.407888 90.250066 95.328977 95.328977 
C 90.250066 100.407888 87.396364 107.297336 87.396364 114.48 
C 87.396364 121.662664 90.250066 128.552112 95.328977 133.631023 
C 100.407888 138.709934 107.297336 141.563636 114.48 141.563636 
z
" clip-path="url(#pe58dcfb1cd)" style="fill: #fdc67a"/>
   </g>
   <g id="patch_74">
    <path d="M 114.48 140.596364 
C 121.406141 140.596364 128.049537 137.844579 132.947058 132.947058 
C 137.844579 128.049537 140.596364 121.406141 140.596364 114.48 
C 140.596364 107.553859 137.844579 100.910463 132.947058 96.012942 
C 128.049537 91.115421 121.406141 88.363636 114.48 88.363636 
C 107.553859 88.363636 100.910463 91.115421 96.012942 96.012942 
C 91.115421 100.910463 88.363636 107.553859 88.363636 114.48 
C 88.363636 121.406141 91.115421 128.049537 96.012942 132.947058 
C 100.910463 137.844579 107.553859 140.596364 114.48 140.596364 
z
" clip-path="url(#pe58dcfb1cd)" style="fill: #fdc67a"/>
   </g>
   <g id="patch_75">
    <path d="M 114.48 139.629091 
C 121.149617 139.629091 127.546961 136.979224 132.263093 132.263093 
C 136.979224 127.546961 139.629091 121.149617 139.629091 114.48 
C 139.629091 107.810383 136.979224 101.413039 132.263093 96.696907 
C 127.546961 91.980776 121.149617 89.330909 114.48 89.330909 
C 107.810383 89.330909 101.413039 91.980776 96.696907 96.696907 
C 91.980776 101.413039 89.330909 107.810383 89.330909 114.48 
C 89.330909 121.149617 91.980776 127.546961 96.696907 132.263093 
C 101.413039 136.979224 107.810383 139.629091 114.48 139.629091 
z
" clip-path="url(#pe58dcfb1cd)" style="fill: #fdc67a"/>
   </g>
   <g id="patch_76">
    <path d="M 114.48 138.661818 
C 120.893093 138.661818 127.044386 136.113869 131.579128 131.579128 
C 136.113869 127.044386 138.661818 120.893093 138.661818 114.48 
C 138.661818 108.066907 136.113869 101.915614 131.579128 97.380872 
C 127.044386 92.846131 120.893093 90.298182 114.48 90.298182 
C 108.066907 90.298182 101.915614 92.846131 97.380872 97.380872 
C 92.846131 101.915614 90.298182 108.066907 90.298182 114.48 
C 90.298182 120.893093 92.846131 127.044386 97.380872 131.579128 
C 101.915614 136.113869 108.066907 138.661818 114.48 138.661818 
z
" clip-path="url(#pe58dcfb1cd)" style="fill: #fdc57a"/>
   </g>
   <g id="patch_77">
    <path d="M 114.48 137.694545 
C 120.636569 137.694545 126.541811 135.248514 130.895163 130.895163 
C 135.248514 126.541811 137.694545 120.636569 137.694545 114.48 
C 137.694545 108.323431 135.248514 102.418189 130.895163 98.064837 
C 126.541811 93.711486 120.636569 91.265455 114.48 91.265455 
C 108.323431 91.265455 102.418189 93.711486 98.064837 98.064837 
C 93.711486 102.418189 91.265455 108.323431 91.265455 114.48 
C 91.265455 120.636569 93.711486 126.541811 98.064837 130.895163 
C 102.418189 135.248514 108.323431 137.694545 114.48 137.694545 
z
" clip-path="url(#pe58dcfb1cd)" style="fill: #fdc579"/>
   </g>
   <g id="patch_78">
    <path d="M 114.48 136.727273 
C 120.380046 136.727273 126.039235 134.38316 130.211197 130.211197 
C 134.38316 126.039235 136.727273 120.380046 136.727273 114.48 
C 136.727273 108.579954 134.38316 102.920765 130.211197 98.748803 
C 126.039235 94.57684 120.380046 92.232727 114.48 92.232727 
C 108.579954 92.232727 102.920765 94.57684 98.748803 98.748803 
C 94.57684 102.920765 92.232727 108.579954 92.232727 114.48 
C 92.232727 120.380046 94.57684 126.039235 98.748803 130.211197 
C 102.920765 134.38316 108.579954 136.727273 114.48 136.727273 
z
" clip-path="url(#pe58dcfb1cd)" style="fill: #fdc479"/>
   </g>
   <g id="patch_79">
    <path d="M 114.48 135.76 
C 120.123522 135.76 125.53666 133.517805 129.527232 129.527232 
C 133.517805 125.53666 135.76 120.123522 135.76 114.48 
C 135.76 108.836478 133.517805 103.42334 129.527232 99.432768 
C 125.53666 95.442195 120.123522 93.2 114.48 93.2 
C 108.836478 93.2 103.42334 95.442195 99.432768 99.432768 
C 95.442195 103.42334 93.2 108.836478 93.2 114.48 
C 93.2 120.123522 95.442195 125.53666 99.432768 129.527232 
C 103.42334 133.517805 108.836478 135.76 114.48 135.76 
z
" clip-path="url(#pe58dcfb1cd)" style="fill: #fdc479"/>
   </g>
   <g id="patch_80">
    <path d="M 114.48 134.792727 
C 119.866998 134.792727 125.034084 132.65245 128.843267 128.843267 
C 132.65245 125.034084 134.792727 119.866998 134.792727 114.48 
C 134.792727 109.093002 132.65245 103.925916 128.843267 100.116733 
C 125.034084 96.30755 119.866998 94.167273 114.48 94.167273 
C 109.093002 94.167273 103.925916 96.30755 100.116733 100.116733 
C 96.30755 103.925916 94.167273 109.093002 94.167273 114.48 
C 94.167273 119.866998 96.30755 125.034084 100.116733 128.843267 
C 103.925916 132.65245 109.093002 134.792727 114.48 134.792727 
z
" clip-path="url(#pe58dcfb1cd)" style="fill: #fdc379"/>
   </g>
   <g id="patch_81">
    <path d="M 114.48 133.825455 
C 119.610475 133.825455 124.531509 131.787095 128.159302 128.159302 
C 131.787095 124.531509 133.825455 119.610475 133.825455 114.48 
C 133.825455 109.349525 131.787095 104.428491 128.159302 100.800698 
C 124.531509 97.172905 119.610475 95.134545 114.48 95.134545 
C 109.349525 95.134545 104.428491 97.172905 100.800698 100.800698 
C 97.172905 104.428491 95.134545 109.349525 95.134545 114.48 
C 95.134545 119.610475 97.172905 124.531509 100.800698 128.159302 
C 104.428491 131.787095 109.349525 133.825455 114.48 133.825455 
z
" clip-path="url(#pe58dcfb1cd)" style="fill: #fdc378"/>
   </g>
   <g id="patch_82">
    <path d="M 114.48 132.858182 
C 119.353951 132.858182 124.028933 130.921741 127.475337 127.475337 
C 130.921741 124.028933 132.858182 119.353951 132.858182 114.48 
C 132.858182 109.606049 130.921741 104.931067 127.475337 101.484663 
C 124.028933 98.038259 119.353951 96.101818 114.48 96.101818 
C 109.606049 96.101818 104.931067 98.038259 101.484663 101.484663 
C 98.038259 104.931067 96.101818 109.606049 96.101818 114.48 
C 96.101818 119.353951 98.038259 124.028933 101.484663 127.475337 
C 104.931067 130.921741 109.606049 132.858182 114.48 132.858182 
z
" clip-path="url(#pe58dcfb1cd)" style="fill: #fdc278"/>
   </g>
   <g id="patch_83">
    <path d="M 114.48 131.890909 
C 119.097427 131.890909 123.526358 130.056386 126.791372 126.791372 
C 130.056386 123.526358 131.890909 119.097427 131.890909 114.48 
C 131.890909 109.862573 130.056386 105.433642 126.791372 102.168628 
C 123.526358 98.903614 119.097427 97.069091 114.48 97.069091 
C 109.862573 97.069091 105.433642 98.903614 102.168628 102.168628 
C 98.903614 105.433642 97.069091 109.862573 97.069091 114.48 
C 97.069091 119.097427 98.903614 123.526358 102.168628 126.791372 
C 105.433642 130.056386 109.862573 131.890909 114.48 131.890909 
z
" clip-path="url(#pe58dcfb1cd)" style="fill: #fdc278"/>
   </g>
   <g id="patch_84">
    <path d="M 114.48 130.923636 
C 118.840903 130.923636 123.023782 129.191031 126.107407 126.107407 
C 129.191031 123.023782 130.923636 118.840903 130.923636 114.48 
C 130.923636 110.119097 129.191031 105.936218 126.107407 102.852593 
C 123.023782 99.768969 118.840903 98.036364 114.48 98.036364 
C 110.119097 98.036364 105.936218 99.768969 102.852593 102.852593 
C 99.768969 105.936218 98.036364 110.119097 98.036364 114.48 
C 98.036364 118.840903 99.768969 123.023782 102.852593 126.107407 
C 105.936218 129.191031 110.119097 130.923636 114.48 130.923636 
z
" clip-path="url(#pe58dcfb1cd)" style="fill: #fdc178"/>
   </g>
   <g id="patch_85">
    <path d="M 114.48 129.956364 
C 118.58438 129.956364 122.521207 128.325676 125.423442 125.423442 
C 128.325676 122.521207 129.956364 118.58438 129.956364 114.48 
C 129.956364 110.37562 128.325676 106.438793 125.423442 103.536558 
C 122.521207 100.634324 118.58438 99.003636 114.48 99.003636 
C 110.37562 99.003636 106.438793 100.634324 103.536558 103.536558 
C 100.634324 106.438793 99.003636 110.37562 99.003636 114.48 
C 99.003636 118.58438 100.634324 122.521207 103.536558 125.423442 
C 106.438793 128.325676 110.37562 129.956364 114.48 129.956364 
z
" clip-path="url(#pe58dcfb1cd)" style="fill: #fdc178"/>
   </g>
   <g id="patch_86">
    <path d="M 114.48 128.989091 
C 118.327856 128.989091 122.018632 127.460322 124.739477 124.739477 
C 127.460322 122.018632 128.989091 118.327856 128.989091 114.48 
C 128.989091 110.632144 127.460322 106.941368 124.739477 104.220523 
C 122.018632 101.499678 118.327856 99.970909 114.48 99.970909 
C 110.632144 99.970909 106.941368 101.499678 104.220523 104.220523 
C 101.499678 106.941368 99.970909 110.632144 99.970909 114.48 
C 99.970909 118.327856 101.499678 122.018632 104.220523 124.739477 
C 106.941368 127.460322 110.632144 128.989091 114.48 128.989091 
z
" clip-path="url(#pe58dcfb1cd)" style="fill: #fdc177"/>
   </g>
   <g id="patch_87">
    <path d="M 114.48 128.021818 
C 118.071332 128.021818 121.516056 126.594967 124.055511 124.055511 
C 126.594967 121.516056 128.021818 118.071332 128.021818 114.48 
C 128.021818 110.888668 126.594967 107.443944 124.055511 104.904489 
C 121.516056 102.365033 118.071332 100.938182 114.48 100.938182 
C 110.888668 100.938182 107.443944 102.365033 104.904489 104.904489 
C 102.365033 107.443944 100.938182 110.888668 100.938182 114.48 
C 100.938182 118.071332 102.365033 121.516056 104.904489 124.055511 
C 107.443944 126.594967 110.888668 128.021818 114.48 128.021818 
z
" clip-path="url(#pe58dcfb1cd)" style="fill: #fdc077"/>
   </g>
   <g id="patch_88">
    <path d="M 114.48 127.054545 
C 117.814808 127.054545 121.013481 125.729612 123.371546 123.371546 
C 125.729612 121.013481 127.054545 117.814808 127.054545 114.48 
C 127.054545 111.145192 125.729612 107.946519 123.371546 105.588454 
C 121.013481 103.230388 117.814808 101.905455 114.48 101.905455 
C 111.145192 101.905455 107.946519 103.230388 105.588454 105.588454 
C 103.230388 107.946519 101.905455 111.145192 101.905455 114.48 
C 101.905455 117.814808 103.230388 121.013481 105.588454 123.371546 
C 107.946519 125.729612 111.145192 127.054545 114.48 127.054545 
z
" clip-path="url(#pe58dcfb1cd)" style="fill: #fdc077"/>
   </g>
   <g id="patch_89">
    <path d="M 114.48 126.087273 
C 117.558285 126.087273 120.510905 124.864257 122.687581 122.687581 
C 124.864257 120.510905 126.087273 117.558285 126.087273 114.48 
C 126.087273 111.401715 124.864257 108.449095 122.687581 106.272419 
C 120.510905 104.095743 117.558285 102.872727 114.48 102.872727 
C 111.401715 102.872727 108.449095 104.095743 106.272419 106.272419 
C 104.095743 108.449095 102.872727 111.401715 102.872727 114.48 
C 102.872727 117.558285 104.095743 120.510905 106.272419 122.687581 
C 108.449095 124.864257 111.401715 126.087273 114.48 126.087273 
z
" clip-path="url(#pe58dcfb1cd)" style="fill: #fdbf77"/>
   </g>
   <g id="patch_90">
    <path d="M 114.48 125.12 
C 117.301761 125.12 120.00833 123.998902 122.003616 122.003616 
C 123.998902 120.00833 125.12 117.301761 125.12 114.48 
C 125.12 111.658239 123.998902 108.95167 122.003616 106.956384 
C 120.00833 104.961098 117.301761 103.84 114.48 103.84 
C 111.658239 103.84 108.95167 104.961098 106.956384 106.956384 
C 104.961098 108.95167 103.84 111.658239 103.84 114.48 
C 103.84 117.301761 104.961098 120.00833 106.956384 122.003616 
C 108.95167 123.998902 111.658239 125.12 114.48 125.12 
z
" clip-path="url(#pe58dcfb1cd)" style="fill: #fdbf76"/>
   </g>
   <g id="patch_91">
    <path d="M 114.48 124.152727 
C 117.045237 124.152727 119.505754 123.133548 121.319651 121.319651 
C 123.133548 119.505754 124.152727 117.045237 124.152727 114.48 
C 124.152727 111.914763 123.133548 109.454246 121.319651 107.640349 
C 119.505754 105.826452 117.045237 104.807273 114.48 104.807273 
C 111.914763 104.807273 109.454246 105.826452 107.640349 107.640349 
C 105.826452 109.454246 104.807273 111.914763 104.807273 114.48 
C 104.807273 117.045237 105.826452 119.505754 107.640349 121.319651 
C 109.454246 123.133548 111.914763 124.152727 114.48 124.152727 
z
" clip-path="url(#pe58dcfb1cd)" style="fill: #fdbe76"/>
   </g>
   <g id="patch_92">
    <path d="M 114.48 123.185455 
C 116.788714 123.185455 119.003179 122.268193 120.635686 120.635686 
C 122.268193 119.003179 123.185455 116.788714 123.185455 114.48 
C 123.185455 112.171286 122.268193 109.956821 120.635686 108.324314 
C 119.003179 106.691807 116.788714 105.774545 114.48 105.774545 
C 112.171286 105.774545 109.956821 106.691807 108.324314 108.324314 
C 106.691807 109.956821 105.774545 112.171286 105.774545 114.48 
C 105.774545 116.788714 106.691807 119.003179 108.324314 120.635686 
C 109.956821 122.268193 112.171286 123.185455 114.48 123.185455 
z
" clip-path="url(#pe58dcfb1cd)" style="fill: #fdbe76"/>
   </g>
   <g id="patch_93">
    <path d="M 114.48 122.218182 
C 116.53219 122.218182 118.500604 121.402838 119.951721 119.951721 
C 121.402838 118.500604 122.218182 116.53219 122.218182 114.48 
C 122.218182 112.42781 121.402838 110.459396 119.951721 109.008279 
C 118.500604 107.557162 116.53219 106.741818 114.48 106.741818 
C 112.42781 106.741818 110.459396 107.557162 109.008279 109.008279 
C 107.557162 110.459396 106.741818 112.42781 106.741818 114.48 
C 106.741818 116.53219 107.557162 118.500604 109.008279 119.951721 
C 110.459396 121.402838 112.42781 122.218182 114.48 122.218182 
z
" clip-path="url(#pe58dcfb1cd)" style="fill: #fdbd76"/>
   </g>
   <g id="patch_94">
    <path d="M 114.48 121.250909 
C 116.275666 121.250909 117.998028 120.537483 119.267756 119.267756 
C 120.537483 117.998028 121.250909 116.275666 121.250909 114.48 
C 121.250909 112.684334 120.537483 110.961972 119.267756 109.692244 
C 117.998028 108.422517 116.275666 107.709091 114.48 107.709091 
C 112.684334 107.709091 110.961972 108.422517 109.692244 109.692244 
C 108.422517 110.961972 107.709091 112.684334 107.709091 114.48 
C 107.709091 116.275666 108.422517 117.998028 109.692244 119.267756 
C 110.961972 120.537483 112.684334 121.250909 114.48 121.250909 
z
" clip-path="url(#pe58dcfb1cd)" style="fill: #fdbd76"/>
   </g>
   <g id="patch_95">
    <path d="M 114.48 120.283636 
C 116.019142 120.283636 117.495453 119.672129 118.583791 118.583791 
C 119.672129 117.495453 120.283636 116.019142 120.283636 114.48 
C 120.283636 112.940858 119.672129 111.464547 118.583791 110.376209 
C 117.495453 109.287871 116.019142 108.676364 114.48 108.676364 
C 112.940858 108.676364 111.464547 109.287871 110.376209 110.376209 
C 109.287871 111.464547 108.676364 112.940858 108.676364 114.48 
C 108.676364 116.019142 109.287871 117.495453 110.376209 118.583791 
C 111.464547 119.672129 112.940858 120.283636 114.48 120.283636 
z
" clip-path="url(#pe58dcfb1cd)" style="fill: #fdbd75"/>
   </g>
   <g id="patch_96">
    <path d="M 114.48 119.316364 
C 115.762619 119.316364 116.992877 118.806774 117.899826 117.899826 
C 118.806774 116.992877 119.316364 115.762619 119.316364 114.48 
C 119.316364 113.197381 118.806774 111.967123 117.899826 111.060174 
C 116.992877 110.153226 115.762619 109.643636 114.48 109.643636 
C 113.197381 109.643636 111.967123 110.153226 111.060174 111.060174 
C 110.153226 111.967123 109.643636 113.197381 109.643636 114.48 
C 109.643636 115.762619 110.153226 116.992877 111.060174 117.899826 
C 111.967123 118.806774 113.197381 119.316364 114.48 119.316364 
z
" clip-path="url(#pe58dcfb1cd)" style="fill: #fdbc75"/>
   </g>
   <g id="patch_97">
    <path d="M 114.48 118.349091 
C 115.506095 118.349091 116.490302 117.941419 117.21586 117.21586 
C 117.941419 116.490302 118.349091 115.506095 118.349091 114.48 
C 118.349091 113.453905 117.941419 112.469698 117.21586 111.74414 
C 116.490302 111.018581 115.506095 110.610909 114.48 110.610909 
C 113.453905 110.610909 112.469698 111.018581 111.74414 111.74414 
C 111.018581 112.469698 110.610909 113.453905 110.610909 114.48 
C 110.610909 115.506095 111.018581 116.490302 111.74414 117.21586 
C 112.469698 117.941419 113.453905 118.349091 114.48 118.349091 
z
" clip-path="url(#pe58dcfb1cd)" style="fill: #fdbc75"/>
   </g>
   <g id="patch_98">
    <path d="M 114.48 117.381818 
C 115.249571 117.381818 115.987726 117.076064 116.531895 116.531895 
C 117.076064 115.987726 117.381818 115.249571 117.381818 114.48 
C 117.381818 113.710429 117.076064 112.972274 116.531895 112.428105 
C 115.987726 111.883936 115.249571 111.578182 114.48 111.578182 
C 113.710429 111.578182 112.972274 111.883936 112.428105 112.428105 
C 111.883936 112.972274 111.578182 113.710429 111.578182 114.48 
C 111.578182 115.249571 111.883936 115.987726 112.428105 116.531895 
C 112.972274 117.076064 113.710429 117.381818 114.48 117.381818 
z
" clip-path="url(#pe58dcfb1cd)" style="fill: #fdbb75"/>
   </g>
   <g id="patch_99">
    <path d="M 114.48 116.414545 
C 114.993047 116.414545 115.485151 116.21071 115.84793 115.84793 
C 116.21071 115.485151 116.414545 114.993047 116.414545 114.48 
C 116.414545 113.966953 116.21071 113.474849 115.84793 113.11207 
C 115.485151 112.74929 114.993047 112.545455 114.48 112.545455 
C 113.966953 112.545455 113.474849 112.74929 113.11207 113.11207 
C 112.74929 113.474849 112.545455 113.966953 112.545455 114.48 
C 112.545455 114.993047 112.74929 115.485151 113.11207 115.84793 
C 113.474849 116.21071 113.966953 116.414545 114.48 116.414545 
z
" clip-path="url(#pe58dcfb1cd)" style="fill: #fdbb74"/>
   </g>
   <g id="patch_100">
    <path d="M 114.48 115.447273 
C 114.736524 115.447273 114.982575 115.345355 115.163965 115.163965 
C 115.345355 114.982575 115.447273 114.736524 115.447273 114.48 
C 115.447273 114.223476 115.345355 113.977425 115.163965 113.796035 
C 114.982575 113.614645 114.736524 113.512727 114.48 113.512727 
C 114.223476 113.512727 113.977425 113.614645 113.796035 113.796035 
C 113.614645 113.977425 113.512727 114.223476 113.512727 114.48 
C 113.512727 114.736524 113.614645 114.982575 113.796035 115.163965 
C 113.977425 115.345355 114.223476 115.447273 114.48 115.447273 
z
" clip-path="url(#pe58dcfb1cd)" style="fill: #fdba74"/>
   </g>
   <g id="patch_101">
    <path d="M 114.48 114.48 
C 114.48 114.48 114.48 114.48 114.48 114.48 
C 114.48 114.48 114.48 114.48 114.48 114.48 
C 114.48 114.48 114.48 114.48 114.48 114.48 
C 114.48 114.48 114.48 114.48 114.48 114.48 
C 114.48 114.48 114.48 114.48 114.48 114.48 
C 114.48 114.48 114.48 114.48 114.48 114.48 
C 114.48 114.48 114.48 114.48 114.48 114.48 
C 114.48 114.48 114.48 114.48 114.48 114.48 
z
" clip-path="url(#pe58dcfb1cd)" style="fill: #fdba74"/>
   </g>
   <g id="patch_102">
    <path d="M 114.48 210.24 
C 139.875849 210.24 164.234968 200.150122 182.192545 182.192545 
C 200.150122 164.234968 210.24 139.875849 210.24 114.48 
C 210.24 89.084151 200.150122 64.725032 182.192545 46.767455 
C 164.234968 28.809878 139.875849 18.72 114.48 18.72 
C 89.084151 18.72 64.725032 28.809878 46.767455 46.767455 
C 28.809878 64.725032 18.72 89.084151 18.72 114.48 
C 18.72 139.875849 28.809878 164.234968 46.767455 182.192545 
C 64.725032 200.150122 89.084151 210.24 114.48 210.24 
L 114.48 210.24 
z
" clip-path="url(#pe58dcfb1cd)" style="fill: none; stroke: #c73e3e; stroke-width: 14; stroke-linejoin: miter"/>
   </g>
   <g id="text_1">
    <!-- ASSTF -->
    <g style="fill: #c73e3e" transform="translate(47.323906 124.965625) scale(0.38 -0.38)">
     <defs>
      <path id="DejaVuSans-Bold-41" d="M 3419 850 
L 1538 850 
L 1241 0 
L 31 0 
L 1759 4666 
L 3194 4666 
L 4922 0 
L 3713 0 
L 3419 850 
z
M 1838 1716 
L 3116 1716 
L 2478 3572 
L 1838 1716 
z
" transform="scale(0.015625)"/>
      <path id="DejaVuSans-Bold-53" d="M 3834 4519 
L 3834 3531 
Q 3450 3703 3084 3790 
Q 2719 3878 2394 3878 
Q 1963 3878 1756 3759 
Q 1550 3641 1550 3391 
Q 1550 3203 1689 3098 
Q 1828 2994 2194 2919 
L 2706 2816 
Q 3484 2659 3812 2340 
Q 4141 2022 4141 1434 
Q 4141 663 3683 286 
Q 3225 -91 2284 -91 
Q 1841 -91 1394 -6 
Q 947 78 500 244 
L 500 1259 
Q 947 1022 1364 901 
Q 1781 781 2169 781 
Q 2563 781 2772 912 
Q 2981 1044 2981 1288 
Q 2981 1506 2839 1625 
Q 2697 1744 2272 1838 
L 1806 1941 
Q 1106 2091 782 2419 
Q 459 2747 459 3303 
Q 459 4000 909 4375 
Q 1359 4750 2203 4750 
Q 2588 4750 2994 4692 
Q 3400 4634 3834 4519 
z
" transform="scale(0.015625)"/>
      <path id="DejaVuSans-Bold-54" d="M 31 4666 
L 4331 4666 
L 4331 3756 
L 2784 3756 
L 2784 0 
L 1581 0 
L 1581 3756 
L 31 3756 
L 31 4666 
z
" transform="scale(0.015625)"/>
      <path id="DejaVuSans-Bold-46" d="M 588 4666 
L 3834 4666 
L 3834 3756 
L 1791 3756 
L 1791 2888 
L 3713 2888 
L 3713 1978 
L 1791 1978 
L 1791 0 
L 588 0 
L 588 4666 
z
" transform="scale(0.015625)"/>
     </defs>
     <use xlink:href="#DejaVuSans-Bold-41"/>
     <use xlink:href="#DejaVuSans-Bold-53" transform="translate(77.392578 0)"/>
     <use xlink:href="#DejaVuSans-Bold-53" transform="translate(144.914062 0)"/>
     <use xlink:href="#DejaVuSans-Bold-54" transform="translate(216.935547 0)"/>
     <use xlink:href="#DejaVuSans-Bold-46" transform="translate(285.148438 0)"/>
    </g>
   </g>
  </g>
 </g>
 <defs>
  <clipPath id="pe58dcfb1cd">
   <rect x="3.6" y="3.6" width="221.76" height="221.76"/>
  </clipPath>
 </defs>
</svg>
